<svg xmlns="http://www.w3.org/2000/svg" xmlns:xlink="http://www.w3.org/1999/xlink" width="772.2" height="742" viewBox="0 0 772.2 742">
  <defs>
    <style>
      .cls-1 {
        opacity: 0.07;
        fill: url(#linear-gradient);
      }

      .cls-2 {
        opacity: 0.4;
        fill: url(#linear-gradient-2);
      }

      .cls-10, .cls-3 {
        opacity: 0.2;
      }

      .cls-3 {
        fill: url(#linear-gradient-3);
      }

      .cls-4, .cls-7, .cls-8 {
        opacity: 0.3;
      }

      .cls-4 {
        fill: url(#linear-gradient-4);
      }

      .cls-5 {
        fill: #f2994a;
      }

      .cls-10, .cls-6 {
        fill: #fff;
      }

      .cls-6 {
        opacity: 0.15;
      }

      .cls-7 {
        fill: url(#linear-gradient-5);
      }

      .cls-8 {
        fill: url(#linear-gradient-6);
      }

      .cls-9 {
        fill: #f2c94c;
      }
    </style>
    <linearGradient id="linear-gradient" x1="1.101" y1="0.302" x2="0.175" y2="0.608" gradientUnits="objectBoundingBox">
      <stop offset="0" stop-color="#fff"/>
      <stop offset="1" stop-color="#fff" stop-opacity="0"/>
    </linearGradient>
    <linearGradient id="linear-gradient-2" x1="1.425" y1="0.288" x2="0.305" y2="0.639" xlink:href="#linear-gradient"/>
    <linearGradient id="linear-gradient-3" x1="0.862" y1="0.31" x2="0.453" y2="0.603" xlink:href="#linear-gradient"/>
    <linearGradient id="linear-gradient-4" x1="0.782" y1="0.313" x2="0.265" y2="0.656" xlink:href="#linear-gradient"/>
    <linearGradient id="linear-gradient-5" x1="0.43" y1="0.015" x2="0.559" y2="0.97" xlink:href="#linear-gradient"/>
    <linearGradient id="linear-gradient-6" x1="1.107" y1="0.067" x2="0.219" y2="0.7" xlink:href="#linear-gradient"/>
  </defs>
  <g id="Illustration" transform="translate(-0.5 -0.3)">
    <path id="Path" class="cls-1" d="M358.5,372.546c0,137.2-80.3,202-179.3,144.9S0,302.746,0,165.646c0-137.2,80.3-202,179.3-144.9S358.5,235.346,358.5,372.546Z" transform="translate(320.7 2.654)"/>
    <path id="Path-2" data-name="Path" class="cls-2" d="M179.4,20.7C155.8,7.1,132.5.1,110.8,0A90.129,90.129,0,0,0,52.6,20.3C35.9,33.8,22.7,53.5,13.7,78.4S0,133,0,165.6L179.3,269Z" transform="translate(239.2 65.999)"/>
    <path id="Path-3" data-name="Path" class="cls-3" d="M0,144.9C0,194,10.5,248.1,30.2,300.3s47.7,100.2,80.4,137.9,68.8,63.4,103.6,73.9,66.7,5.3,91.8-15,42.1-54.7,49.1-98.8c6.9-44.2,3.4-96.2-10.2-149.4s-36.5-105.3-66-149.6S214.8,20.4,179.3,0V248.4Z" transform="translate(279.2 52.3)"/>
    <path id="Path-4" data-name="Path" class="cls-4" d="M297.5,171.7,0,0,.1,155.1,271.4,311.7l26.3,38.9Z" transform="translate(32.2 0.3)"/>
    <path id="Path-5" data-name="Path" class="cls-5" d="M0,42.1V0L112.3,64.8v42.1Z" transform="translate(0.5 18.6)"/>
    <path id="Path-6" data-name="Path" class="cls-6" d="M65.2,37.6,0,0V13.6L65.2,51.2Z" transform="translate(188 128)"/>
    <path id="Path-7" data-name="Path" class="cls-6" d="M125.7,72.5,0,0V13.6L125.7,86.1Z" transform="translate(127.6 120.4)"/>
    <path id="Path-8" data-name="Path" class="cls-6" d="M152.3,87.8,0,0V13.6l152.3,87.9Z" transform="translate(101 132.3)"/>
    <path id="Path-9" data-name="Path" class="cls-5" d="M0,15.384c0,12.8,7.6,27.5,16.9,32.9s16.9-.6,16.9-13.4-7.6-27.5-16.9-32.9C7.5-3.416,0,2.584,0,15.384Z" transform="translate(269.3 173.716)"/>
    <path id="Path-10" data-name="Path" class="cls-7" d="M0,0,297.6,171.8l.1,155.1L26.4,170.3.2,178.9Z" transform="translate(449.4 411.9)"/>
    <path id="Path-11" data-name="Path" class="cls-5" d="M0,42.1V0L112.3,64.8v42.1Z" transform="translate(660.4 568.9)"/>
    <path id="Path-12" data-name="Path" class="cls-6" d="M0,0,65.2,37.6V51.2L0,13.6Z" transform="translate(526 493.9)"/>
    <path id="Path-13" data-name="Path" class="cls-6" d="M0,0,117.7,67.9V81.5L0,13.7Z" transform="translate(526 521.1)"/>
    <path id="Path-14" data-name="Path" class="cls-6" d="M0,0,152.3,87.9v13.6L0,13.6Z" transform="translate(526 548.4)"/>
    <path id="Path-15" data-name="Path" class="cls-5" d="M33.8,34.884c0,12.8-7.6,18.8-16.9,13.4S0,28.184,0,15.384s7.6-18.8,16.9-13.4S33.8,22.084,33.8,34.884Z" transform="translate(476.1 463.916)"/>
    <path id="Path-16" data-name="Path" class="cls-8" d="M0,0,167.6,96.7V407.2L0,310.5Z" transform="translate(240.1 335.1)"/>
    <path id="Path-17" data-name="Path" class="cls-6" d="M0,0,134.6,77.7V91.3L0,13.6Z" transform="translate(256.6 519.4)"/>
    <path id="Path-18" data-name="Path" class="cls-6" d="M0,0,115.7,66.8V80.4L0,13.6Z" transform="translate(266 551.4)"/>
    <path id="Path-19" data-name="Path" class="cls-9" d="M116.6,67.3,0,0V34.7L116.6,102Z" transform="translate(198.3 539.6)"/>
    <path id="Path-20" data-name="Path" class="cls-9" d="M38.8,40.841c0,15-8.7,22.1-19.4,15.9S0,33.241,0,18.141c0-15,8.7-22.1,19.4-15.9C30.1,8.541,38.8,25.841,38.8,40.841Z" transform="translate(304.2 416.359)"/>
    <path id="Path-21" data-name="Path" class="cls-9" d="M34.138,4.04c-17.3-10.1-31.6-.6-34.1,21.1-.4,3.8,2.4,8.8,5.9,10.8l56.4,33c3.5,2,6.3.4,5.9-3.9C65.738,40.24,51.438,14.14,34.138,4.04Z" transform="translate(289.462 481.16)"/>
    <path id="Path-22" data-name="Path" class="cls-10" d="M42.8,39.1,0,14.4V0L42.8,24.7A41.491,41.491,0,0,1,55.7,37.1a42.859,42.859,0,0,1,8,24.4c0,10.2-2.6,16-7.5,17.6-4.6,1.5-10.1-1.1-13.4-3L25.2,65.9l-.1-.1c-1.5-.9-3.9-1.8-5.8-1.2-1.6.5-3.3,2-3.3,7.7a19.081,19.081,0,0,0,3.2,11.2,17.475,17.475,0,0,0,5.7,5.2l.2.1,53.8,31.1v14.4L25.5,103.4A41.117,41.117,0,0,1,11.9,91,44.986,44.986,0,0,1,3.5,65.1c0-9.9,3.4-14.9,8.3-16.3,4.6-1.3,9.9.6,13.6,2.8L42.8,61.7c2.5,1.5,4.4,2.1,5.7,1.7,1-.3,2.8-1.7,2.8-9a15.894,15.894,0,0,0-3-9.9A18.169,18.169,0,0,0,42.8,39.1Z" transform="translate(104 270.6)"/>
    <path id="Path-23" data-name="Path" class="cls-5" d="M33.8,35.11c0,12.9-7.6,19-16.9,13.7C7.6,43.41,0,28.61,0,15.61c0-12.9,7.6-19,16.9-13.7C26.2,7.31,33.8,22.21,33.8,35.11Z" transform="translate(78 246.79)"/>
    <path id="Path-24" data-name="Path" class="cls-9" d="M33.8,35.11c0,12.9-7.6,19-16.9,13.7C7.6,43.41,0,28.61,0,15.61c0-12.9,7.6-19,16.9-13.7C26.2,7.31,33.8,22.21,33.8,35.11Z" transform="translate(171 374.79)"/>
  </g>
</svg>
