<svg xmlns="http://www.w3.org/2000/svg" xmlns:xlink="http://www.w3.org/1999/xlink" width="1600" height="1200" viewBox="0 0 1600 1200"><defs><clipPath id="clip-path"><rect id="Background" width="1600" height="1200" fill="#f2f2f2" transform="translate(5747 -4965)"/></clipPath></defs><g id="Mask_Group_1" clip-path="url(#clip-path)" data-name="Mask Group 1" transform="translate(-5747 4965)"><g id="Waimakariri" transform="translate(5437.422 -5324.329)"><path id="Shape" fill="#f2f2f2" d="M396.387,792.331c218.386,13.293,376.607-156.56,395.422-394.3S614.772-29.228,396.387,3.738,17.286,171.963.964,398.035,178,779.04,396.387,792.331Z" transform="matrix(0.777, 0.629, -0.629, 0.777, 923.501, 395.856)"/><path id="Shape-2" fill="#eff3f0" d="M185.785,367.294c97.691-17.7,184.1-82.222,184.1-183.647S287.463,0,185.785,0,17.791,92.73,1.682,183.647,88.094,385,185.785,367.294Z" data-name="Shape" transform="matrix(0.777, 0.629, -0.629, 0.777, 1742.522, 81.598)"/><path id="Shape-3" fill="#f2f2f2" d="M256.667,0C396.046,0,486.7,111.817,509.035,252.317s0,304.567,0,438.268S404.974,942.9,256.667,942.9-10.593,824.552,4.3,690.587s-14.893-293.67,0-438.268S117.288,0,256.667,0Z" data-name="Shape" transform="matrix(0.777, 0.629, -0.629, 0.777, 1777.941, 858.787)"/><path id="Shape-4" fill="#8a2be2" d="M193.684,385.827c111.139,0,192.327-86.108,192.327-192.327S291.767-11.961,193.684,1.173-13.444,77.378,1.357,193.5,82.545,385.827,193.684,385.827Z" data-name="Shape" transform="matrix(0.777, 0.629, -0.629, 0.777, 619.355, 285.782)"/><path id="Shape-5" fill="#0277bd" d="M61.431,122.432c35.249,0,61-27.324,61-61.033S92.54-3.795,61.431.372-4.265,24.554.431,61.4,26.181,122.432,61.431,122.432Z" data-name="Shape" transform="matrix(0.777, 0.629, -0.629, 0.777, 821.405, 1204.61)"/><path id="Shape-6" fill="#e65100" d="M40.343,80.4c23.149,0,40.06-17.944,40.06-40.079S60.773-2.493,40.343.245-2.8,16.125.283,40.323,17.194,80.4,40.343,80.4Z" data-name="Shape" transform="matrix(0.777, 0.629, -0.629, 0.777, 442.6, 362.53)"/><path id="Shape-7" fill="#0277bd" d="M20.1,40.186c11.076.675,19.1-7.94,20.054-20S31.18-1.482,20.1.19.877,8.722.049,20.187,9.029,39.511,20.1,40.186Z" data-name="Shape" transform="translate(949.273 1285.363) rotate(155.997)"/><path id="Shape-8" fill="#9a9bef" d="M101.773,202.834c58.4,0,101.061-45.268,101.061-101.108S153.313-6.288,101.773.617-7.066,40.679.713,101.726,43.374,202.834,101.773,202.834Z" data-name="Shape" transform="matrix(0.777, 0.629, -0.629, 0.777, 1566.494, 312.98)"/><path id="Shape-9" fill="#7252a4" d="M40.343,80.4c23.149,0,40.06-17.944,40.06-40.079S60.773-2.493,40.343.245-2.8,16.125.283,40.323,17.194,80.4,40.343,80.4Z" data-name="Shape" transform="matrix(0.777, 0.629, -0.629, 0.777, 864.712, 622.011)"/><path id="Shape-10" fill="#7252a4" d="M18.337,36.546A17.922,17.922,0,0,0,36.546,18.329c0-10.061-8.923-19.462-18.209-18.218S-1.273,7.329.129,18.329,7.815,36.546,18.337,36.546Z" data-name="Shape" transform="matrix(0.777, 0.629, -0.629, 0.777, 934.652, 673.867)"/><path id="Shape-11" fill="#7252a4" d="M101.716,188.214c38.26,0,61.456-57.538,66.831-103.9S133.607-4.379,84.273.364,0,37.948,0,84.312,63.455,188.214,101.716,188.214Z" data-name="Shape" transform="matrix(0.777, 0.629, -0.629, 0.777, 1263.927, 1287.732)"/><path id="Shape-12" fill="#ffd600" d="M161.655,323.135c89.062,5.422,153.587-63.85,161.262-160.805S250.718-11.92,161.655,1.524,7.049,70.131.393,162.33,72.593,317.714,161.655,323.135Z" data-name="Shape" transform="matrix(0.777, 0.629, -0.629, 0.777, 773.653, 748.958)"/><path id="Shape-13" fill="#ffd600" d="M61.194,122.319c33.714,2.052,58.139-24.169,61.045-60.871S94.907-4.513,61.194.577,2.669,26.547.149,61.447,27.479,120.267,61.194,122.319Z" data-name="Shape" transform="matrix(0.777, 0.629, -0.629, 0.777, 1705.832, 928.684)"/><path id="Shape-14" fill="#f0c933" d="M20.094,40.165c11.07.674,19.091-7.936,20.044-19.987S31.164-1.482,20.094.189.877,8.718.049,20.177,9.024,39.491,20.094,40.165Z" data-name="Shape" transform="matrix(0.777, 0.629, -0.629, 0.777, 913.367, 1100.718)"/><path id="Shape-15" fill="#ffd600" d="M20.094,40.165c11.07.674,19.091-7.936,20.044-19.987S31.164-1.482,20.094.189.877,8.718.049,20.177,9.024,39.491,20.094,40.165Z" data-name="Shape" transform="matrix(0.777, 0.629, -0.629, 0.777, 1749.37, 1072.395)"/><path id="Shape-16" fill="#f0c933" d="M10.05,20.085c5.535.337,9.545-3.968,10.022-9.994S15.581-.738,10.05.094.438,4.361.024,10.091,4.511,19.748,10.05,20.085Z" data-name="Shape" transform="matrix(0.777, 0.629, -0.629, 0.777, 939.524, 1072.823)"/><path id="Shape-17" fill="#453264" d="M61.194,122.319c33.714,2.052,58.139-24.169,61.045-60.871S94.907-4.513,61.194.577,2.669,26.547.149,61.447,27.479,120.267,61.194,122.319Z" data-name="Shape" transform="matrix(0.777, 0.629, -0.629, 0.777, 1206.971, 724.937)"/><path id="Shape-18" fill="#e65100" d="M20.094,40.165c11.07.674,19.091-7.936,20.044-19.987S31.164-1.482,20.094.189.877,8.718.049,20.177,9.024,39.491,20.094,40.165Z" data-name="Shape" transform="matrix(0.777, 0.629, -0.629, 0.777, 504.046, 756.267)"/><path id="Shape-19" fill="#453264" d="M20.094,40.165c11.07.674,19.091-7.936,20.044-19.987S31.164-1.482,20.094.189.877,8.718.049,20.177,9.024,39.491,20.094,40.165Z" data-name="Shape" transform="matrix(0.777, 0.629, -0.629, 0.777, 1651.608, 1215.84)"/><path id="Shape-20" fill="#453264" d="M20.094,40.165c11.07.674,19.091-7.936,20.044-19.987S31.164-1.482,20.094.189.877,8.718.049,20.177,9.024,39.491,20.094,40.165Z" data-name="Shape" transform="matrix(-0.454, 0.891, -0.891, -0.454, 1208.337, 888.134)"/><path id="Shape-21" fill="#0f90d1" d="M61.194,122.319c33.714,2.052,58.139-24.169,61.045-60.871S94.907-4.513,61.194.577,2.669,26.547.149,61.447,27.479,120.267,61.194,122.319Z" data-name="Shape" transform="matrix(0.777, 0.629, -0.629, 0.777, 1816.385, 563.219)"/><path id="Shape-22" fill="#7360ff" d="M250.8,501.775c125.4,0,234.8-112.083,250.8-250.345S397.628-13.055,250.8,1.085,0,113.169,0,251.43,125.4,501.775,250.8,501.775Z" data-name="Shape" transform="matrix(0.777, 0.629, -0.629, 0.777, 441.376, 1035.58)"/><path id="Shape-23" fill="#9a9bef" d="M187.24,0c101.678,0,167.811,81.59,184.1,184.1s0,222.228,0,319.783-75.913,184.1-184.1,184.1-194.967-86.356-184.1-184.1-10.863-214.276,0-319.783S85.562,0,187.24,0Z" data-name="Shape" transform="matrix(0.777, 0.629, -0.629, 0.777, 1594.896, 567.563)"/><path id="Shape-24" fill="#c4c8d4" d="M82.657,165.222C128.2,167.994,161.189,132.575,165.112,83S128.2-6.1,82.657.779,3.6,35.859.2,83,37.118,162.45,82.657,165.222Z" data-name="Shape" transform="matrix(0.777, 0.629, -0.629, 0.777, 1383.332, 485.053)"/><path id="Shape-25" fill="#9a9bef" d="M226.509,452.761c124.792,7.6,215.2-89.463,225.956-225.31S351.3-16.7,226.509,2.136,9.881,98.264.551,227.448,101.718,445.165,226.509,452.761Z" data-name="Shape" transform="matrix(0.777, 0.629, -0.629, 0.777, 285.304, 781.975)"/><path id="Shape-26" fill="#c4c8d4" d="M226.509,452.761c124.792,7.6,215.2-89.463,225.956-225.31S351.3-16.7,226.509,2.136,9.881,98.264.551,227.448,101.718,445.165,226.509,452.761Z" data-name="Shape" transform="matrix(0.777, 0.629, -0.629, 0.777, 1866.856, 1133.735)"/><path id="Shape-27" fill="#eff3f0" d="M30.288,59.994C46.214,57.1,60.3,46.564,60.3,30A30.006,30.006,0,0,0,30.288,0C13.712,0,2.9,15.147.274,30S14.362,62.886,30.288,59.994Z" data-name="Shape" transform="matrix(0.777, 0.629, -0.629, 0.777, 1705.855, 510.061)"/><path id="Shape-28" fill="#eff3f0" d="M18.356,36.364c9.652-1.756,18.19-8.144,18.19-18.182A18.182,18.182,0,0,0,18.356,0C8.314,0,1.758,9.18.166,18.182S8.7,38.113,18.356,36.364Z" data-name="Shape" transform="matrix(0.777, 0.629, -0.629, 0.777, 1450.943, 376.667)"/><path id="Shape-29" fill="#7360ff" d="M184.1,0a184.1,184.1,0,0,1,184.1,184.1c0,101.677-11.878,221.243,0,319.783S285.749,700.3,184.1,687.991,0,617.273,0,503.887V184.1C0,72.687,82.426,0,184.1,0Z" data-name="Shape" transform="matrix(0.777, 0.629, -0.629, 0.777, 1217.235, 0.5)"/></g></g></svg>